<svg xmlns="http://www.w3.org/2000/svg" viewBox="0 0 100 100">
  <g fill="#222" stroke="#000" stroke-width="4" stroke-linejoin="round" stroke-linecap="round">
    <!-- cruz do rei -->
    <rect x="47" y="10" width="6" height="14" />
    <rect x="42" y="14" width="16" height="6" />
    <!-- “cabeça” redonda -->
    <circle cx="50" cy="30" r="8" />
    <!-- corpo principal -->
    <path d="M38 40 C 38 34, 62 34, 62 40 C 62 50, 58 58, 50 62 C 42 58, 38 50, 38 40 Z" />
    <!-- parte inferior mais larga -->
    <path d="M34 62 C 34 56, 66 56, 66 62 C 66 70, 60 74, 50 76 C 40 74, 34 70, 34 62 Z" />
    <!-- base -->
    <rect x="30" y="78" width="40" height="8" rx="2" />
    <rect x="26" y="88" width="48" height="4" rx="2" />
  </g>
</svg>
