<svg xmlns="http://www.w3.org/2000/svg" viewBox="0 0 100 100">
  <g fill="#222" stroke="#000" stroke-width="4" stroke-linejoin="round" stroke-linecap="round">
    <!-- “coroa” com 5 pontas -->
    <circle cx="30" cy="20" r="4" />
    <circle cx="42" cy="16" r="4" />
    <circle cx="50" cy="18" r="4" />
    <circle cx="58" cy="16" r="4" />
    <circle cx="70" cy="20" r="4" />
    <path d="M 30 24 L 38 30 L 50 26 L 62 30 L 70 24 L 70 34 L 30 34 Z" />
    <!-- corpo -->
    <path d="M36 34 C 36 30, 64 30, 64 34 C 64 44, 60 52, 50 56 C 40 52, 36 44, 36 34 Z" />
    <!-- base superior -->
    <rect x="32" y="58" width="36" height="8" rx="2" />
    <!-- base inferior -->
    <rect x="28" y="70" width="44" height="8" rx="2" />
    <rect x="24" y="82" width="52" height="6" rx="2" />
  </g>
</svg>
